# This file uses centimeters as units for non-parametric coordinates.

v -4.900000 0.300000 -4.900000
v -4.900000 2.425000 -4.900000
v -4.900000 3.700000 -4.900000
v -0.600000 0.300000 -4.900000
v -0.600000 2.425000 -4.900000
v -0.600000 3.700000 -4.900000
v -4.900000 0.300000 -0.600000
v -4.900000 2.425000 -0.600000
v -4.900000 3.700000 -0.600000
v -4.900000 0.300000 0.600000
v -4.900000 2.425000 0.600000
v -4.900000 3.700000 0.600000
v -4.900000 0.300000 4.900002
v -4.900000 2.425000 4.900002
v -4.900000 3.700000 4.900002
v -0.600000 0.300000 4.900002
v -0.600000 2.425000 4.900002
v -0.600000 3.700000 4.900002
v 0.600000 0.300000 4.900002
v 0.600000 2.425000 4.900002
v 0.600000 3.700000 4.900002
v 4.900000 0.300000 4.900002
v 4.900000 2.425000 4.900002
v 4.900000 3.700000 4.900002
v 4.900000 0.300000 0.600000
v 4.900000 2.425000 0.600000
v 4.900000 3.700000 0.600000
v 4.900000 0.300000 -0.600000
v 4.900000 2.425000 -0.600000
v 4.900000 3.700000 -0.600000
v 4.900000 0.300000 -4.900000
v 4.900000 2.425000 -4.900000
v 4.900000 3.700000 -4.900000
v 0.600000 0.300000 -4.900000
v 0.600000 2.425000 -4.900000
v 0.600000 3.700000 -4.900000
v -5.100000 0.300000 5.100000
v -5.100000 2.425000 5.100000
v -5.100000 3.700000 5.100000
v -0.600000 0.300000 5.100000
v -0.600000 2.425000 5.100000
v -0.600000 3.700000 5.100000
v -5.100000 0.300000 0.600000
v -5.100000 2.425000 0.600000
v -5.100000 3.700000 0.600000
v -5.100000 0.300000 -0.599999
v -5.100000 2.425000 -0.599999
v -5.100000 3.700000 -0.599999
v -5.100000 0.300000 -5.100000
v -5.100000 2.425000 -5.100000
v -5.100000 3.700000 -5.100000
v -0.600000 0.300000 -5.100000
v -0.600000 2.425000 -5.100000
v -0.600000 3.700000 -5.100000
v 0.600000 0.300000 -5.100000
v 0.600000 2.425000 -5.100000
v 0.600000 3.700000 -5.100000
v 5.100000 0.300000 -5.100000
v 5.100000 2.425000 -5.100000
v 5.100000 3.700000 -5.100000
v 5.100000 0.300000 -0.599999
v 5.100000 2.425000 -0.599999
v 5.100000 3.700000 -0.599999
v 5.100000 0.300000 0.600000
v 5.100000 2.425000 0.600000
v 5.100000 3.700000 0.600000
v 5.100000 0.300000 5.100000
v 5.100000 2.425000 5.100000
v 5.100000 3.700000 5.100000
v 0.600000 0.300000 5.100000
v 0.600000 2.425000 5.100000
v 0.600000 3.700000 5.100000
vt 3.493125 0.625000
vt 3.493100 0.000000
vt 4.758011 0.000000
vt 4.757983 0.625000
vt 3.493083 1.000000
vt 4.757999 1.000000
vt 2.228458 0.625000
vt 2.228412 0.000000
vt 2.228472 1.000000
vt 1.875674 1.000000
vt 1.875692 0.625000
vt 1.875804 0.000000
vt 0.610790 0.625000
vt 0.610809 0.000000
vt 0.610781 1.000000
vt -0.653799 0.625000
vt -0.653806 0.000000
vt -0.653788 1.000000
vt -1.006870 1.000000
vt -1.006866 0.625000
vt -1.006899 0.000000
vt -2.271401 0.625000
vt -2.271386 0.000000
vt -2.271374 1.000000
vt -3.536278 0.625000
vt -3.536273 0.000000
vt -3.536291 1.000000
vt -3.889183 1.000000
vt -3.889187 0.625000
vt -3.889206 0.000000
vt 6.375570 0.625000
vt 6.375548 0.000000
vt -5.153775 1.000000
vt 5.110870 0.625000
vt 5.110845 0.000000
vt 5.110872 1.000000
vt -5.153768 0.000000
vt -5.153787 0.625000
vt 6.375574 1.000000
vt 0.615415 0.625000
vt 0.615411 0.000000
vt 1.938910 0.000000
vt 1.938956 0.625000
vt 0.615416 1.000000
vt 1.938943 1.000000
vt -0.708185 0.625000
vt -0.708197 0.000000
vt -0.708203 1.000000
vt -1.061086 1.000000
vt -1.061096 0.625000
vt -1.061076 0.000000
vt -2.384615 0.625000
vt -2.384614 0.000000
vt -2.384608 1.000000
vt -3.708162 0.625000
vt -3.708189 0.000000
vt -3.708148 1.000000
vt -4.061038 1.000000
vt -4.061027 0.625000
vt -4.060994 0.000000
vt -5.384656 0.625000
vt -5.384639 0.000000
vt -5.384669 1.000000
vt 6.615397 0.000000
vt 6.615385 0.625000
vt 5.291939 0.625000
vt 5.291939 0.000000
vt 6.615380 1.000000
vt 5.291912 1.000000
vt 4.938888 1.000000
vt 4.938851 0.625000
vt 4.938858 0.000000
vt 3.615247 0.625000
vt 3.615258 0.000000
vt 3.615240 1.000000
vt 2.291926 0.625000
vt 2.291995 0.000000
vt 2.291941 1.000000
vn 0.000000 0.000000 1.000000
vn 0.000000 0.000000 1.000000
vn 0.000000 0.000000 1.000000
vn 0.000000 0.000000 1.000000
vn 0.000000 0.000000 1.000000
vn 0.000000 0.000000 1.000000
vn 0.000000 0.000000 1.000000
vn 0.000000 0.000000 1.000000
vn 1.000000 0.000000 0.000000
vn 1.000000 0.000000 0.000000
vn 1.000000 0.000000 0.000000
vn 1.000000 0.000000 0.000000
vn 1.000000 0.000000 0.000000
vn 1.000000 0.000000 0.000000
vn 1.000000 0.000000 0.000000
vn 1.000000 0.000000 0.000000
vn 1.000000 0.000000 0.000000
vn 1.000000 0.000000 0.000000
vn 1.000000 0.000000 0.000000
vn 1.000000 0.000000 0.000000
vn 1.000000 0.000000 0.000000
vn 1.000000 0.000000 0.000000
vn 1.000000 0.000000 0.000000
vn 1.000000 0.000000 0.000000
vn 1.000000 0.000000 0.000000
vn 1.000000 0.000000 0.000000
vn 1.000000 0.000000 0.000000
vn 1.000000 0.000000 0.000000
vn 0.000000 0.000000 -1.000000
vn 0.000000 0.000000 -1.000000
vn 0.000000 0.000000 -1.000000
vn 0.000000 0.000000 -1.000000
vn 0.000000 0.000000 -1.000000
vn 0.000000 0.000000 -1.000000
vn 0.000000 0.000000 -1.000000
vn 0.000000 0.000000 -1.000000
vn 0.000000 0.000000 -1.000000
vn 0.000000 0.000000 -1.000000
vn 0.000000 0.000000 -1.000000
vn 0.000000 0.000000 -1.000000
vn 0.000000 0.000000 -1.000000
vn 0.000000 0.000000 -1.000000
vn 0.000000 0.000000 -1.000000
vn 0.000000 0.000000 -1.000000
vn 0.000000 0.000000 -1.000000
vn 0.000000 0.000000 -1.000000
vn 0.000000 0.000000 -1.000000
vn 0.000000 0.000000 -1.000000
vn -1.000000 0.000000 0.000000
vn -1.000000 0.000000 0.000000
vn -1.000000 0.000000 0.000000
vn -1.000000 0.000000 0.000000
vn -1.000000 0.000000 0.000000
vn -1.000000 0.000000 0.000000
vn -1.000000 0.000000 0.000000
vn -1.000000 0.000000 0.000000
vn -1.000000 0.000000 0.000000
vn -1.000000 0.000000 0.000000
vn -1.000000 0.000000 0.000000
vn -1.000000 0.000000 0.000000
vn -1.000000 0.000000 0.000000
vn -1.000000 0.000000 0.000000
vn -1.000000 0.000000 0.000000
vn -1.000000 0.000000 0.000000
vn -1.000000 0.000000 0.000000
vn -1.000000 0.000000 0.000000
vn -1.000000 0.000000 0.000000
vn -1.000000 0.000000 0.000000
vn 0.000000 0.000000 1.000000
vn 0.000000 0.000000 1.000000
vn 0.000000 0.000000 1.000000
vn 0.000000 0.000000 1.000000
vn 0.000000 0.000000 1.000000
vn 0.000000 0.000000 1.000000
vn 0.000000 0.000000 1.000000
vn 0.000000 0.000000 1.000000
vn 0.000000 0.000000 1.000000
vn 0.000000 0.000000 1.000000
vn 0.000000 0.000000 1.000000
vn 0.000000 0.000000 1.000000
vn 0.000000 0.000000 1.000000
vn 0.000000 0.000000 1.000000
vn 0.000000 0.000000 1.000000
vn 0.000000 0.000000 1.000000
vn 0.000000 0.000000 1.000000
vn 0.000000 0.000000 1.000000
vn 0.000000 0.000000 1.000000
vn 0.000000 0.000000 1.000000
vn -1.000000 0.000000 0.000000
vn -1.000000 0.000000 0.000000
vn -1.000000 0.000000 0.000000
vn -1.000000 0.000000 0.000000
vn -1.000000 0.000000 0.000000
vn -1.000000 0.000000 0.000000
vn -1.000000 0.000000 0.000000
vn -1.000000 0.000000 0.000000
vn -1.000000 0.000000 0.000000
vn -1.000000 0.000000 0.000000
vn -1.000000 0.000000 0.000000
vn -1.000000 0.000000 0.000000
vn -1.000000 0.000000 0.000000
vn -1.000000 0.000000 0.000000
vn -1.000000 0.000000 0.000000
vn -1.000000 0.000000 0.000000
vn -1.000000 0.000000 0.000000
vn -1.000000 0.000000 0.000000
vn -1.000000 0.000000 0.000000
vn -1.000000 0.000000 0.000000
vn 0.000000 0.000000 -1.000000
vn 0.000000 0.000000 -1.000000
vn 0.000000 0.000000 -1.000000
vn 0.000000 0.000000 -1.000000
vn 0.000000 0.000000 -1.000000
vn 0.000000 0.000000 -1.000000
vn 0.000000 0.000000 -1.000000
vn 0.000000 0.000000 -1.000000
vn 0.000000 0.000000 -1.000000
vn 0.000000 0.000000 -1.000000
vn 0.000000 0.000000 -1.000000
vn 0.000000 0.000000 -1.000000
vn 0.000000 0.000000 -1.000000
vn 0.000000 0.000000 -1.000000
vn 0.000000 0.000000 -1.000000
vn 0.000000 0.000000 -1.000000
vn 0.000000 0.000000 -1.000000
vn 0.000000 0.000000 -1.000000
vn 0.000000 0.000000 -1.000000
vn 0.000000 0.000000 -1.000000
vn 1.000000 0.000000 0.000000
vn 1.000000 0.000000 0.000000
vn 1.000000 0.000000 0.000000
vn 1.000000 0.000000 0.000000
vn 1.000000 0.000000 0.000000
vn 1.000000 0.000000 0.000000
vn 1.000000 0.000000 0.000000
vn 1.000000 0.000000 0.000000
vn 1.000000 0.000000 0.000000
vn 1.000000 0.000000 0.000000
vn 1.000000 0.000000 0.000000
vn 1.000000 0.000000 0.000000
vn 1.000000 0.000000 0.000000
vn 1.000000 0.000000 0.000000
vn 1.000000 0.000000 0.000000
vn 1.000000 0.000000 0.000000
vn 1.000000 0.000000 0.000000
vn 1.000000 0.000000 0.000000
vn 1.000000 0.000000 0.000000
vn 1.000000 0.000000 0.000000
vn 0.000000 0.000000 1.000000
vn 0.000000 0.000000 1.000000
vn 0.000000 0.000000 1.000000
vn 0.000000 0.000000 1.000000
vn 0.000000 0.000000 1.000000
vn 0.000000 0.000000 1.000000
vn 0.000000 0.000000 1.000000
vn 0.000000 0.000000 1.000000
vn 0.000000 0.000000 1.000000
vn 0.000000 0.000000 1.000000
vn 0.000000 0.000000 1.000000
vn 0.000000 0.000000 1.000000
s off
f 2/1/1 1/2/2 4/3/3 5/4/4
f 3/5/5 2/1/6 5/4/7 6/6/8
f 1/2/9 2/1/10 8/7/11 7/8/12
f 2/1/13 3/5/14 9/9/15 8/7/16
f 8/7/17 9/9/18 12/10/19 11/11/20
f 10/12/21 11/11/22 14/13/23 13/14/24
f 11/11/25 12/10/26 15/15/27 14/13/28
f 13/14/29 14/13/30 17/16/31 16/17/32
f 14/13/33 15/15/34 18/18/35 17/16/36
f 17/16/37 18/18/38 21/19/39 20/20/40
f 19/21/41 20/20/42 23/22/43 22/23/44
f 20/20/45 21/19/46 24/24/47 23/22/48
f 22/23/49 23/22/50 26/25/51 25/26/52
f 23/22/53 24/24/54 27/27/55 26/25/56
f 26/25/57 27/27/58 30/28/59 29/29/60
f 28/30/61 29/29/62 32/38/63 31/37/64
f 29/29/65 30/28/66 33/33/67 32/38/68
f 31/32/69 32/31/70 35/34/71 34/35/72
f 32/31/73 33/39/74 36/36/75 35/34/76
f 6/6/77 5/4/78 35/34/79 36/36/80
f 38/40/81 37/41/82 40/42/83 41/43/84
f 39/44/85 38/40/86 41/43/87 42/45/88
f 37/41/89 38/40/90 44/46/91 43/47/92
f 38/40/93 39/44/94 45/48/95 44/46/96
f 44/46/97 45/48/98 48/49/99 47/50/100
f 46/51/101 47/50/102 50/52/103 49/53/104
f 47/50/105 48/49/106 51/54/107 50/52/108
f 49/53/109 50/52/110 53/55/111 52/56/112
f 50/52/113 51/54/114 54/57/115 53/55/116
f 53/55/117 54/57/118 57/58/119 56/59/120
f 55/60/121 56/59/122 59/61/123 58/62/124
f 56/59/125 57/58/126 60/63/127 59/61/128
f 58/64/129 59/65/130 62/66/131 61/67/132
f 59/65/133 60/68/134 63/69/135 62/66/136
f 62/66/137 63/69/138 66/70/139 65/71/140
f 64/72/141 65/71/142 68/73/143 67/74/144
f 65/71/145 66/70/146 69/75/147 68/73/148
f 67/74/149 68/73/150 71/76/151 70/77/152
f 68/73/153 69/75/154 72/78/155 71/76/156
f 42/45/157 41/43/158 71/76/159 72/78/160
