# This file uses centimeters as units for non-parametric coordinates.

v -34.000000 0.300000 34.000000
v -34.000000 3.700000 34.000000
v -15.599999 0.300000 34.000000
v -15.599999 3.700000 34.000000
v -15.599999 0.300000 29.899998
v -15.599999 3.700000 29.899998
v -12.600000 0.300000 29.899998
v -12.600000 3.700000 29.899998
v -12.600000 0.300000 28.500000
v -12.600000 3.700000 28.500000
v -12.600000 0.300000 26.500000
v -12.600000 3.700000 26.500000
v -12.600000 0.300000 25.099998
v -12.600000 3.700000 25.099998
v -15.599999 0.300000 25.099998
v -15.599999 3.700000 25.099998
v -15.599999 0.300000 20.599997
v -15.599999 3.700000 20.599997
v -15.599999 0.300000 19.399998
v -15.599999 3.700000 19.399998
v -15.599999 0.300000 17.899998
v -15.599999 3.700000 17.899998
v -9.600000 0.300000 17.899998
v -9.600000 3.700000 17.899998
v -9.600000 0.300000 14.899998
v -9.600000 3.700000 14.899998
v -7.100000 0.300000 14.899998
v -7.100000 3.700000 14.899998
v -5.900000 0.300000 14.899998
v -5.900000 3.700000 14.899998
v -1.699999 0.300000 14.899998
v -1.699999 3.700000 14.899998
v -34.000000 0.300000 15.599998
v -34.000000 3.700000 15.599998
v -29.899998 0.300000 15.599998
v -29.899998 3.700000 15.599998
v -29.899998 0.300000 12.599998
v -29.899998 3.700000 12.599998
v -28.500000 0.300000 12.599998
v -28.500000 3.700000 12.599998
v -26.500000 0.300000 12.599998
v -26.500000 3.700000 12.599998
v -25.099998 0.300000 12.599998
v -25.099998 3.700000 12.599998
v -25.099998 0.300000 15.599998
v -25.099998 3.700000 15.599998
v -20.599998 0.300000 15.599998
v -20.599998 3.700000 15.599998
v -19.399998 0.300000 15.599998
v -19.399998 3.700000 15.599998
v -17.899998 0.300000 15.599998
v -17.899998 3.700000 15.599998
v -17.899998 0.300000 9.599998
v -17.899998 3.700000 9.599998
v -14.899997 0.300000 9.599998
v -14.899997 3.700000 9.599998
v -14.899997 0.300000 7.099998
v -14.899997 3.700000 7.099998
v -14.899997 0.300000 5.899998
v -14.899997 3.700000 5.899998
v -14.899997 0.300000 1.699997
v -14.899997 3.700000 1.699997
v -1.699999 2.425000 14.899998
v -5.900000 2.425000 14.899998
v -7.100000 2.425000 14.899998
v -9.600000 2.425000 14.899998
v -9.600000 2.425000 17.899998
v -15.599999 2.425000 17.899998
v -15.599999 2.425000 19.399998
v -15.599999 2.425000 20.599997
v -15.599999 2.425000 25.099998
v -12.600000 2.425000 25.099998
v -12.600000 2.425000 26.500000
v -12.600000 2.425000 28.500000
v -12.600000 2.425000 29.899998
v -15.599999 2.425000 29.899998
v -15.599999 2.425000 34.000000
v -34.000000 2.425000 34.000000
v -34.000000 2.425000 15.599998
v -29.899998 2.425000 15.599998
v -29.899998 2.425000 12.599998
v -28.500000 2.425000 12.599998
v -26.500000 2.425000 12.599998
v -25.099998 2.425000 12.599998
v -25.099998 2.425000 15.599998
v -20.599998 2.425000 15.599998
v -19.399998 2.425000 15.599998
v -17.899998 2.425000 15.599998
v -17.899998 2.425000 9.599998
v -14.899997 2.425000 9.599998
v -14.899997 2.425000 7.099998
v -14.899997 2.425000 5.899998
v -14.899997 2.425000 1.699997
vt 0.562424 1.000000
vt -4.849185 1.000000
vt -4.849185 0.625000
vt 0.562420 0.625000
vt -6.055009 1.000000
vt -6.055009 0.625000
vt -6.937284 1.000000
vt -6.937287 0.625000
vt -7.348964 1.000000
vt -7.348984 0.625000
vt -7.936959 1.000000
vt -7.936932 0.625000
vt -8.348615 1.000000
vt -8.348609 0.625000
vt -9.230800 1.000000
vt -9.230798 0.625000
vt -10.554097 1.000000
vt -10.554111 0.625000
vt -10.906924 1.000000
vt -10.906911 0.625000
vt -11.348028 1.000000
vt -11.348022 0.625000
vt -13.112536 1.000000
vt -13.112556 0.625000
vt -13.994815 1.000000
vt -13.994807 0.625000
vt -14.729978 1.000000
vt -14.729995 0.625000
vt -15.082797 1.000000
vt -15.082777 0.625000
vt -16.317963 1.000000
vt -16.317936 0.625000
vt 5.974188 1.000000
vt 5.974181 0.625000
vt 7.180090 1.000000
vt 7.180082 0.625000
vt 8.062482 1.000000
vt 8.062486 0.625000
vt 8.474289 1.000000
vt 8.474278 0.625000
vt 9.062664 1.000000
vt 9.062671 0.625000
vt 9.474468 1.000000
vt 9.474473 0.625000
vt 10.356871 1.000000
vt 10.356870 0.625000
vt 11.680423 1.000000
vt 11.680423 0.625000
vt 12.033377 1.000000
vt 12.033382 0.625000
vt 12.474571 1.000000
vt 12.474577 0.625000
vt 14.239382 1.000000
vt 14.239365 0.625000
vt 15.121814 1.000000
vt 15.121811 0.625000
vt 15.857173 1.000000
vt 15.857160 0.625000
vt 16.210140 1.000000
vt 16.210140 0.625000
vt 17.445459 0.625000
vt 17.445482 1.000000
vt -16.317913 0.000000
vt -15.082708 0.000000
vt -14.730030 0.000000
vt -13.994811 0.000000
vt -13.112538 0.000000
vt -11.348015 0.000000
vt -10.906860 0.000000
vt -10.554139 0.000000
vt -9.230795 0.000000
vt -8.348577 0.000000
vt -7.936848 0.000000
vt -7.349057 0.000000
vt -6.937310 0.000000
vt -6.055012 0.000000
vt -4.849182 0.000000
vt 0.562412 0.000000
vt 5.974186 0.000000
vt 7.180089 0.000000
vt 8.062464 0.000000
vt 8.474229 0.000000
vt 9.062712 0.000000
vt 9.474482 0.000000
vt 10.356871 0.000000
vt 11.680417 0.000000
vt 12.033387 0.000000
vt 12.474573 0.000000
vt 14.239377 0.000000
vt 15.121793 0.000000
vt 15.857122 0.000000
vt 17.445442 0.000000
vt 16.210129 0.000000
vn 0.000000 0.000000 -1.000000
vn 0.000000 0.000000 -1.000000
vn 0.000000 0.000000 -1.000000
vn 0.000000 0.000000 -1.000000
vn -1.000000 0.000000 -0.000000
vn -1.000000 0.000000 -0.000000
vn -1.000000 0.000000 -0.000000
vn -1.000000 0.000000 -0.000000
vn 0.000000 0.000000 -1.000000
vn 0.000000 0.000000 -1.000000
vn 0.000000 0.000000 -1.000000
vn 0.000000 0.000000 -1.000000
vn -1.000000 0.000000 -0.000000
vn -1.000000 0.000000 -0.000000
vn -1.000000 0.000000 -0.000000
vn -1.000000 0.000000 -0.000000
vn -1.000000 0.000000 -0.000000
vn -1.000000 0.000000 -0.000000
vn -1.000000 0.000000 -0.000000
vn -1.000000 0.000000 -0.000000
vn -1.000000 0.000000 -0.000000
vn -1.000000 0.000000 -0.000000
vn -1.000000 0.000000 -0.000000
vn -1.000000 0.000000 -0.000000
vn -0.000000 0.000000 1.000000
vn -0.000000 0.000000 1.000000
vn -0.000000 0.000000 1.000000
vn -0.000000 0.000000 1.000000
vn -1.000000 0.000000 -0.000000
vn -1.000000 0.000000 -0.000000
vn -1.000000 0.000000 -0.000000
vn -1.000000 0.000000 -0.000000
vn -1.000000 0.000000 -0.000000
vn -1.000000 0.000000 -0.000000
vn -1.000000 0.000000 -0.000000
vn -1.000000 0.000000 -0.000000
vn -1.000000 0.000000 -0.000000
vn -1.000000 0.000000 -0.000000
vn -1.000000 0.000000 -0.000000
vn -1.000000 0.000000 -0.000000
vn 0.000000 0.000000 -1.000000
vn 0.000000 0.000000 -1.000000
vn 0.000000 0.000000 -1.000000
vn 0.000000 0.000000 -1.000000
vn -1.000000 0.000000 -0.000000
vn -1.000000 0.000000 -0.000000
vn -1.000000 0.000000 -0.000000
vn -1.000000 0.000000 -0.000000
vn 0.000000 0.000000 -1.000000
vn 0.000000 0.000000 -1.000000
vn 0.000000 0.000000 -1.000000
vn 0.000000 0.000000 -1.000000
vn 0.000000 0.000000 -1.000000
vn 0.000000 0.000000 -1.000000
vn 0.000000 0.000000 -1.000000
vn 0.000000 0.000000 -1.000000
vn 0.000000 0.000000 -1.000000
vn 0.000000 0.000000 -1.000000
vn 0.000000 0.000000 -1.000000
vn 0.000000 0.000000 -1.000000
vn 1.000000 0.000000 0.000000
vn 1.000000 0.000000 0.000000
vn 1.000000 0.000000 0.000000
vn 1.000000 0.000000 0.000000
vn -0.000000 0.000000 1.000000
vn -0.000000 0.000000 1.000000
vn -0.000000 0.000000 1.000000
vn -0.000000 0.000000 1.000000
vn 1.000000 0.000000 0.000000
vn 1.000000 0.000000 0.000000
vn 1.000000 0.000000 0.000000
vn 1.000000 0.000000 0.000000
vn -0.000000 0.000000 1.000000
vn -0.000000 0.000000 1.000000
vn -0.000000 0.000000 1.000000
vn -0.000000 0.000000 1.000000
vn -0.000000 0.000000 1.000000
vn -0.000000 0.000000 1.000000
vn -0.000000 0.000000 1.000000
vn -0.000000 0.000000 1.000000
vn -0.000000 0.000000 1.000000
vn -0.000000 0.000000 1.000000
vn -0.000000 0.000000 1.000000
vn -0.000000 0.000000 1.000000
vn -1.000000 0.000000 -0.000000
vn -1.000000 0.000000 -0.000000
vn -1.000000 0.000000 -0.000000
vn -1.000000 0.000000 -0.000000
vn -0.000000 0.000000 1.000000
vn -0.000000 0.000000 1.000000
vn -0.000000 0.000000 1.000000
vn -0.000000 0.000000 1.000000
vn -0.000000 0.000000 1.000000
vn -0.000000 0.000000 1.000000
vn -0.000000 0.000000 1.000000
vn -0.000000 0.000000 1.000000
vn -0.000000 0.000000 1.000000
vn -0.000000 0.000000 1.000000
vn -0.000000 0.000000 1.000000
vn -0.000000 0.000000 1.000000
vn 1.000000 0.000000 0.000000
vn 1.000000 0.000000 0.000000
vn 1.000000 0.000000 0.000000
vn 1.000000 0.000000 0.000000
vn -0.000000 0.000000 1.000000
vn -0.000000 0.000000 1.000000
vn -0.000000 0.000000 1.000000
vn -0.000000 0.000000 1.000000
vn 1.000000 0.000000 0.000000
vn 1.000000 0.000000 0.000000
vn 1.000000 0.000000 0.000000
vn 1.000000 0.000000 0.000000
vn 1.000000 0.000000 0.000000
vn 1.000000 0.000000 0.000000
vn 1.000000 0.000000 0.000000
vn 1.000000 0.000000 0.000000
vn 1.000000 0.000000 0.000000
vn 1.000000 0.000000 0.000000
vn 1.000000 0.000000 0.000000
vn 1.000000 0.000000 0.000000
vn 0.000000 0.000000 -1.000000
vn 0.000000 0.000000 -1.000000
vn 0.000000 0.000000 -1.000000
vn 0.000000 0.000000 -1.000000
vn -1.000000 0.000000 -0.000000
vn -1.000000 0.000000 -0.000000
vn 0.000000 0.000000 -1.000000
vn 0.000000 0.000000 -1.000000
vn -1.000000 0.000000 -0.000000
vn -1.000000 0.000000 -0.000000
vn -1.000000 0.000000 -0.000000
vn -1.000000 0.000000 -0.000000
vn -0.000000 0.000000 1.000000
vn -0.000000 0.000000 1.000000
vn -1.000000 0.000000 -0.000000
vn -1.000000 0.000000 -0.000000
vn -1.000000 0.000000 -0.000000
vn -1.000000 0.000000 -0.000000
vn 0.000000 0.000000 -1.000000
vn 0.000000 0.000000 -1.000000
vn -1.000000 0.000000 -0.000000
vn -1.000000 0.000000 -0.000000
vn 0.000000 0.000000 -1.000000
vn 0.000000 0.000000 -1.000000
vn 1.000000 0.000000 0.000000
vn 1.000000 0.000000 0.000000
vn -0.000000 0.000000 1.000000
vn -0.000000 0.000000 1.000000
vn 1.000000 0.000000 0.000000
vn 1.000000 0.000000 0.000000
vn -0.000000 0.000000 1.000000
vn -0.000000 0.000000 1.000000
vn -0.000000 0.000000 1.000000
vn -0.000000 0.000000 1.000000
vn -1.000000 0.000000 -0.000000
vn -1.000000 0.000000 -0.000000
vn -0.000000 0.000000 1.000000
vn -0.000000 0.000000 1.000000
vn -0.000000 0.000000 1.000000
vn -0.000000 0.000000 1.000000
vn 1.000000 0.000000 0.000000
vn 1.000000 0.000000 0.000000
vn -0.000000 0.000000 1.000000
vn -0.000000 0.000000 1.000000
vn 1.000000 0.000000 0.000000
vn 1.000000 0.000000 0.000000
vn 1.000000 0.000000 0.000000
vn 1.000000 0.000000 0.000000
s 1
f 2/1/1 4/2/2 77/3/3 78/4/4
s 2
f 4/2/5 6/5/6 76/6/7 77/3/8
s 3
f 6/5/9 8/7/10 75/8/11 76/6/12
s 4
f 8/7/13 10/9/14 74/10/15 75/8/16
s off
f 10/9/17 12/11/18 73/12/19 74/10/20
s 5
f 12/11/21 14/13/22 72/14/23 73/12/24
s 6
f 14/13/25 16/15/26 71/16/27 72/14/28
s 7
f 16/15/29 18/17/30 70/18/31 71/16/32
s off
f 18/17/33 20/19/34 69/20/35 70/18/36
s 8
f 20/19/37 22/21/38 68/22/39 69/20/40
s 9
f 22/21/41 24/23/42 67/24/43 68/22/44
s 10
f 24/23/45 26/25/46 66/26/47 67/24/48
s 11
f 26/25/49 28/27/50 65/28/51 66/26/52
s off
f 28/27/53 30/29/54 64/30/55 65/28/56
s 12
f 30/29/57 32/31/58 63/32/59 64/30/60
s 13
f 34/33/61 2/1/62 78/4/63 79/34/64
s 14
f 36/35/65 34/33/66 79/34/67 80/36/68
s 15
f 38/37/69 36/35/70 80/36/71 81/38/72
s 16
f 40/39/73 38/37/74 81/38/75 82/40/76
s off
f 42/41/77 40/39/78 82/40/79 83/42/80
s 17
f 44/43/81 42/41/82 83/42/83 84/44/84
s 18
f 46/45/85 44/43/86 84/44/87 85/46/88
s 19
f 48/47/89 46/45/90 85/46/91 86/48/92
s off
f 50/49/93 48/47/94 86/48/95 87/50/96
s 20
f 52/51/97 50/49/98 87/50/99 88/52/100
s 21
f 54/53/101 52/51/102 88/52/103 89/54/104
s 22
f 56/55/105 54/53/106 89/54/107 90/56/108
s 23
f 58/57/109 56/55/110 90/56/111 91/58/112
s off
f 60/59/113 58/57/114 91/58/115 92/60/116
s 24
f 93/61/117 62/62/118 60/59/119 92/60/120
s 12
f 64/30/60 63/32/59 31/63/121 29/64/122
s 11
f 66/26/52 65/28/51 27/65/123 25/66/124
s 10
f 67/24/48 66/26/47 25/66/125 23/67/126
s 9
f 68/22/44 67/24/43 23/67/127 21/68/128
s 8
f 69/20/40 68/22/39 21/68/129 19/69/130
s 7
f 71/16/32 70/18/31 17/70/131 15/71/132
s 6
f 72/14/28 71/16/27 15/71/133 13/72/134
s 5
f 73/12/24 72/14/23 13/72/135 11/73/136
s 4
f 75/8/16 74/10/15 9/74/137 7/75/138
s 3
f 76/6/12 75/8/11 7/75/139 5/76/140
s 2
f 77/3/8 76/6/7 5/76/141 3/77/142
s 1
f 78/4/4 77/3/3 3/77/143 1/78/144
s 13
f 79/34/64 78/4/63 1/78/145 33/79/146
s 14
f 80/36/68 79/34/67 33/79/147 35/80/148
s 15
f 81/38/72 80/36/71 35/80/149 37/81/150
s 16
f 82/40/76 81/38/75 37/81/151 39/82/152
s 17
f 84/44/84 83/42/83 41/83/153 43/84/154
s 18
f 85/46/88 84/44/87 43/84/155 45/85/156
s 19
f 86/48/92 85/46/91 45/85/157 47/86/158
s 20
f 88/52/100 87/50/99 49/87/159 51/88/160
s 21
f 89/54/104 88/52/103 51/88/161 53/89/162
s 22
f 90/56/108 89/54/107 53/89/163 55/90/164
s 23
f 91/58/112 90/56/111 55/90/165 57/91/166
s 24
f 61/92/167 93/61/117 92/60/120 59/93/168
