# This file uses centimeters as units for non-parametric coordinates.

v -9.600000 0.300000 24.899998
v -9.600000 3.700000 24.899998
v -15.400000 0.300000 24.899998
v -15.400000 3.700000 24.899998
v -9.600000 2.425000 24.899998
v -15.400000 2.425000 24.899998
v -15.400000 0.300000 20.599998
v -15.400000 2.425000 20.599998
v -15.400000 3.700000 20.599998
v -15.400000 0.300000 19.399998
v -15.400000 2.425000 19.399998
v -15.400000 3.700000 19.399998
v -15.400000 0.300000 18.099998
v -15.400000 2.425000 18.099998
v -15.400000 3.700000 18.099998
v -9.600000 0.300000 18.099998
v -9.600000 2.425000 18.099998
v -9.600000 3.700000 18.099998
v -9.600000 0.300000 22.399998
v -9.600000 2.425000 22.399998
v -9.600000 3.700000 22.399998
v -9.600000 0.300000 23.599998
v -9.600000 2.425000 23.599998
v -9.600000 3.700000 23.599998
v -9.400000 0.300000 25.099998
v -9.400000 3.700000 25.099998
v -9.400000 2.425000 25.099998
v -9.400000 0.300000 23.599998
v -9.400000 2.425000 23.599998
v -9.400000 3.700000 23.599998
v -9.400000 0.300000 22.399998
v -9.400000 2.425000 22.399998
v -9.400000 3.700000 22.399998
v -9.400000 0.300000 21.099998
v -9.400000 2.425000 21.099998
v -9.400000 3.700000 21.099998
v -0.600000 0.300000 21.099998
v -0.600000 2.425000 21.099998
v -0.600000 3.700000 21.099998
v -12.400000 0.300000 25.099998
v -12.400000 2.425000 25.099998
v -12.400000 3.700000 25.099998
v -12.400000 0.300000 26.500000
v -12.400000 2.425000 26.500000
v -12.400000 3.700000 26.500000
v -12.400000 0.300000 28.500000
v -12.400000 2.425000 28.500000
v -12.400000 3.700000 28.500000
v -12.400000 0.300000 29.899998
v -12.400000 2.425000 29.899998
v -12.400000 3.700000 29.899998
v 12.400000 0.300000 29.899998
v 12.400000 2.425000 29.899998
v 12.400000 3.700000 29.899998
v 12.400000 0.300000 28.500000
v 12.400000 2.425000 28.500000
v 12.400000 3.700000 28.500000
v 12.400000 0.300000 26.500000
v 12.400000 2.425000 26.500000
v 12.400000 3.700000 26.500000
v 12.400000 0.300000 25.099998
v 12.400000 2.425000 25.099998
v 12.400000 3.700000 25.099998
v 9.400000 0.300000 25.099998
v 9.400000 2.425000 25.099998
v 9.400000 3.700000 25.099998
v 9.400000 0.300000 23.599998
v 9.400000 2.425000 23.599998
v 9.400000 3.700000 23.599998
v 9.400000 0.300000 22.399998
v 9.400000 2.425000 22.399998
v 9.400000 3.700000 22.399998
v 9.400000 0.300000 21.099998
v 9.400000 2.425000 21.099998
v 9.400000 3.700000 21.099998
v 0.600000 0.300000 21.099998
v 0.600000 2.425000 21.099998
v 0.600000 3.700000 21.099998
v -0.600000 0.300000 20.899998
v -0.600000 2.425000 20.899998
v -0.600000 3.700000 20.899998
v -9.400000 0.300000 20.899998
v -9.400000 2.425000 20.899998
v -9.400000 3.700000 20.899998
v -9.400000 0.300000 15.099998
v -9.400000 2.425000 15.099998
v -9.400000 3.700000 15.099998
v -7.100000 0.300000 15.099998
v -7.100000 2.425000 15.099998
v -7.100000 3.700000 15.099998
v -5.900000 0.300000 15.099998
v -5.900000 2.425000 15.099998
v -5.900000 3.700000 15.099998
v -1.700000 0.300000 15.099998
v -1.700000 2.425000 15.099998
v -1.700000 3.700000 15.099998
v 0.600000 0.300000 20.899998
v 0.600000 2.425000 20.899998
v 0.600000 3.700000 20.899998
v 9.400000 0.300000 20.899998
v 9.400000 2.425000 20.899998
v 9.400000 3.700000 20.899998
v 9.400000 0.300000 15.100000
v 9.400000 2.425000 15.100000
v 9.400000 3.700000 15.100000
v 7.100000 0.300000 15.100000
v 7.100000 2.425000 15.100000
v 7.100000 3.700000 15.100000
v 5.900000 0.300000 15.100000
v 5.900000 2.425000 15.100000
v 5.900000 3.700000 15.100000
v 1.700001 0.300000 15.100000
v 1.700001 2.425000 15.100000
v 1.700001 3.700000 15.100000
v 15.399998 0.300000 24.899998
v 15.399998 3.700000 24.899998
v 9.599998 0.300000 24.899998
v 9.599998 3.700000 24.899998
v 15.399998 2.425000 24.899998
v 9.599998 2.425000 24.899998
v 9.599998 0.300000 23.599998
v 9.599998 2.425000 23.599998
v 9.599998 3.700000 23.599998
v 9.599998 0.300000 22.399998
v 9.599998 2.425000 22.399998
v 9.599998 3.700000 22.399998
v 9.599998 0.300000 18.099998
v 9.599998 2.425000 18.099998
v 9.599998 3.700000 18.099998
v 15.399998 0.300000 18.099998
v 15.399998 2.425000 18.099998
v 15.399998 3.700000 18.099998
v 15.399998 0.300000 19.399998
v 15.399998 2.425000 19.399998
v 15.399998 3.700000 19.399998
v 15.399998 0.300000 20.599998
v 15.399998 2.425000 20.599998
v 15.399998 3.700000 20.599998
v 1.100000 0.300000 26.600000
v 1.100000 2.425000 26.600000
v 1.100000 3.700000 26.600000
v -1.100000 0.300000 26.600000
v -1.100000 2.425000 26.600000
v -1.100000 3.700000 26.600000
v 1.100000 0.300000 24.400000
v 1.100000 2.425000 24.400000
v 1.100000 3.700000 24.400000
v -1.100000 0.300000 24.400000
v -1.100000 2.425000 24.400000
v -1.100000 3.700000 24.400000
vt 1.758171 1.000000
vt 0.052289 1.000000
vt 0.052289 0.625000
vt 1.758170 0.625000
vt 0.052289 0.000000
vt 1.758170 0.000000
vt 3.022872 0.000000
vt 3.022878 0.625000
vt 3.022878 1.000000
vt 3.375817 0.625000
vt 3.375819 1.000000
vt 3.375822 0.000000
vt 3.758168 0.000000
vt 3.758162 0.625000
vt 3.758173 1.000000
vt -3.653592 0.625000
vt -3.653609 0.000000
vt -1.947713 0.000000
vt -1.947712 0.625000
vt -3.653584 1.000000
vt -1.947711 1.000000
vt -0.683005 0.000000
vt -0.683009 0.625000
vt -0.683008 1.000000
vt -0.330066 0.625000
vt -0.330068 1.000000
vt -0.330067 0.000000
vt 4.587604 0.625000
vt 4.587594 0.000000
vt 5.028784 0.000000
vt 5.028770 0.625000
vt 4.587602 1.000000
vt 5.028736 1.000000
vt 5.381634 0.625000
vt 5.381576 1.000000
vt 5.381598 0.000000
vt 5.763947 0.000000
vt 5.763947 0.625000
vt 5.763936 1.000000
vt 8.352132 0.000000
vt 8.352129 0.625000
vt 8.352129 1.000000
vt 3.705269 0.625000
vt 3.705230 0.000000
vt 3.705262 1.000000
vt 3.293591 0.625000
vt 3.293475 0.000000
vt 3.293583 1.000000
vt 2.705738 1.000000
vt 2.705784 0.625000
vt 2.705883 0.000000
vt 2.294179 0.625000
vt 2.294186 0.000000
vt 2.294178 1.000000
vt -4.996674 0.625000
vt -4.996685 0.000000
vt -4.996667 1.000000
vt -5.408237 0.625000
vt -5.408386 0.000000
vt -5.408161 1.000000
vt -5.995747 1.000000
vt -5.995705 0.625000
vt -5.995574 0.000000
vt -6.407247 0.625000
vt -6.407201 0.000000
vt -6.407238 1.000000
vt -7.289213 0.625000
vt -7.289207 0.000000
vt -7.289196 1.000000
vt -7.730270 0.625000
vt -7.730283 0.000000
vt -7.730244 1.000000
vt -8.083104 1.000000
vt -8.083059 0.625000
vt -8.082919 0.000000
vt -8.465358 0.625000
vt -8.465337 0.000000
vt -8.465334 1.000000
vt 11.293097 0.000000
vt 11.293100 0.625000
vt 8.705050 0.625000
vt 8.705063 0.000000
vt 11.293092 1.000000
vt 8.705068 1.000000
vt 0.676471 0.625000
vt 0.676470 0.000000
vt 3.264712 0.000000
vt 3.264694 0.625000
vt 0.676470 1.000000
vt 3.264717 1.000000
vt 4.970592 0.000000
vt 4.970592 0.625000
vt 4.970591 1.000000
vt 5.647062 0.000000
vt 5.647062 0.625000
vt 5.647063 1.000000
vt 6.000004 0.625000
vt 6.000004 1.000000
vt 6.000004 0.000000
vt 7.235299 0.000000
vt 7.235299 0.625000
vt 7.235298 1.000000
vt 0.323528 1.000000
vt 0.323528 0.625000
vt 0.323528 0.000000
vt -2.264712 0.625000
vt -2.264707 0.000000
vt -2.264705 1.000000
vt -3.970590 0.625000
vt -3.970590 0.000000
vt -3.970590 1.000000
vt -4.647062 0.625000
vt -4.647060 0.000000
vt -4.647060 1.000000
vt -5.000003 1.000000
vt -5.000004 0.625000
vt -5.000003 0.000000
vt -6.235297 0.625000
vt -6.235298 0.000000
vt -6.235298 1.000000
vt 0.931369 1.000000
vt -0.774579 1.000000
vt -0.774579 0.625000
vt 0.931411 0.625000
vt -0.774626 0.000000
vt 0.931388 0.000000
vt 1.313741 0.000000
vt 1.313758 0.625000
vt 1.313773 1.000000
vt 1.666708 0.625000
vt 1.666735 1.000000
vt 1.666721 0.000000
vt 2.931404 0.000000
vt 2.931391 0.625000
vt 2.931359 1.000000
vt 4.637180 0.000000
vt 4.637236 0.625000
vt 4.637201 1.000000
vt -2.774455 0.625000
vt -2.774437 0.000000
vt -2.392050 0.000000
vt -2.392099 0.625000
vt -2.774588 1.000000
vt -2.392130 1.000000
vt -2.039243 0.625000
vt -2.039219 1.000000
vt -2.039369 0.000000
vt 1.729356 0.000000
vt 1.729405 0.625000
vt 1.082363 0.625000
vt 1.082404 0.000000
vt 1.729450 1.000000
vt 1.082341 1.000000
vt -0.858840 0.625000
vt -0.858873 0.000000
vt -0.211713 0.000000
vt -0.211758 0.625000
vt -0.858792 1.000000
vt -0.211765 1.000000
vt 0.435367 0.000000
vt 0.435263 0.625000
vt 0.435207 1.000000
vn 0.000000 0.000000 -1.000000
vn 0.000000 0.000000 -1.000000
vn 0.000000 0.000000 -1.000000
vn 0.000000 0.000000 -1.000000
vn 0.000000 0.000000 -1.000000
vn 0.000000 0.000000 -1.000000
vn 1.000000 0.000000 0.000000
vn 1.000000 0.000000 0.000000
vn 1.000000 0.000000 0.000000
vn 1.000000 0.000000 0.000000
vn 1.000000 0.000000 0.000000
vn 1.000000 0.000000 0.000000
vn 1.000000 0.000000 0.000000
vn 1.000000 0.000000 0.000000
vn 1.000000 0.000000 0.000000
vn 1.000000 0.000000 0.000000
vn 1.000000 0.000000 0.000000
vn 1.000000 0.000000 0.000000
vn 1.000000 0.000000 0.000000
vn 1.000000 0.000000 0.000000
vn 1.000000 0.000000 0.000000
vn 1.000000 0.000000 0.000000
vn 1.000000 0.000000 0.000000
vn 1.000000 0.000000 0.000000
vn 1.000000 0.000000 0.000000
vn 1.000000 0.000000 0.000000
vn 0.000000 0.000000 1.000000
vn 0.000000 0.000000 1.000000
vn 0.000000 0.000000 1.000000
vn 0.000000 0.000000 1.000000
vn 0.000000 0.000000 1.000000
vn 0.000000 0.000000 1.000000
vn 0.000000 0.000000 1.000000
vn 0.000000 0.000000 1.000000
vn -1.000000 0.000000 0.000000
vn -1.000000 0.000000 0.000000
vn -1.000000 0.000000 0.000000
vn -1.000000 0.000000 0.000000
vn -1.000000 0.000000 0.000000
vn -1.000000 0.000000 0.000000
vn -1.000000 0.000000 0.000000
vn -1.000000 0.000000 0.000000
vn -1.000000 0.000000 0.000000
vn -1.000000 0.000000 0.000000
vn -1.000000 0.000000 0.000000
vn -1.000000 0.000000 0.000000
vn -1.000000 0.000000 0.000000
vn -1.000000 0.000000 0.000000
vn -1.000000 0.000000 0.000000
vn -1.000000 0.000000 0.000000
vn -1.000000 0.000000 0.000000
vn -1.000000 0.000000 0.000000
vn -1.000000 0.000000 0.000000
vn -1.000000 0.000000 0.000000
vn 1.000000 0.000000 0.000000
vn 1.000000 0.000000 0.000000
vn 1.000000 0.000000 0.000000
vn 1.000000 0.000000 0.000000
vn 1.000000 0.000000 0.000000
vn 1.000000 0.000000 0.000000
vn 1.000000 0.000000 0.000000
vn 1.000000 0.000000 0.000000
vn 1.000000 0.000000 0.000000
vn 1.000000 0.000000 0.000000
vn 1.000000 0.000000 0.000000
vn 1.000000 0.000000 0.000000
vn 1.000000 0.000000 0.000000
vn 1.000000 0.000000 0.000000
vn 1.000000 0.000000 0.000000
vn 1.000000 0.000000 0.000000
vn 1.000000 0.000000 0.000000
vn 1.000000 0.000000 0.000000
vn 1.000000 0.000000 0.000000
vn 1.000000 0.000000 0.000000
vn 0.000000 0.000000 1.000000
vn 0.000000 0.000000 1.000000
vn 0.000000 0.000000 1.000000
vn 0.000000 0.000000 1.000000
vn 0.000000 0.000000 1.000000
vn 0.000000 0.000000 1.000000
vn 0.000000 0.000000 1.000000
vn 0.000000 0.000000 1.000000
vn 0.000000 0.000000 1.000000
vn 0.000000 0.000000 1.000000
vn 0.000000 0.000000 1.000000
vn 0.000000 0.000000 1.000000
vn 0.000000 0.000000 1.000000
vn 0.000000 0.000000 1.000000
vn 0.000000 0.000000 1.000000
vn 0.000000 0.000000 1.000000
vn 1.000000 0.000000 0.000000
vn 1.000000 0.000000 0.000000
vn 1.000000 0.000000 0.000000
vn 1.000000 0.000000 0.000000
vn 1.000000 0.000000 0.000000
vn 1.000000 0.000000 0.000000
vn 1.000000 0.000000 0.000000
vn 1.000000 0.000000 0.000000
vn 1.000000 0.000000 0.000000
vn 1.000000 0.000000 0.000000
vn 1.000000 0.000000 0.000000
vn 1.000000 0.000000 0.000000
vn 1.000000 0.000000 0.000000
vn 1.000000 0.000000 0.000000
vn 1.000000 0.000000 0.000000
vn 1.000000 0.000000 0.000000
vn 1.000000 0.000000 0.000000
vn 1.000000 0.000000 0.000000
vn 1.000000 0.000000 0.000000
vn 1.000000 0.000000 0.000000
vn 0.000000 0.000000 -1.000000
vn 0.000000 0.000000 -1.000000
vn 0.000000 0.000000 -1.000000
vn 0.000000 0.000000 -1.000000
vn 0.000000 0.000000 -1.000000
vn 0.000000 0.000000 -1.000000
vn 0.000000 0.000000 -1.000000
vn 0.000000 0.000000 -1.000000
vn -1.000000 0.000000 0.000000
vn -1.000000 0.000000 0.000000
vn -1.000000 0.000000 0.000000
vn -1.000000 0.000000 0.000000
vn -1.000000 0.000000 0.000000
vn -1.000000 0.000000 0.000000
vn -1.000000 0.000000 0.000000
vn -1.000000 0.000000 0.000000
vn -1.000000 0.000000 0.000000
vn -1.000000 0.000000 0.000000
vn -1.000000 0.000000 0.000000
vn -1.000000 0.000000 0.000000
vn -1.000000 0.000000 0.000000
vn -1.000000 0.000000 0.000000
vn -1.000000 0.000000 0.000000
vn -1.000000 0.000000 0.000000
vn -1.000000 0.000000 0.000000
vn -1.000000 0.000000 0.000000
vn -1.000000 0.000000 0.000000
vn -1.000000 0.000000 0.000000
vn 0.000000 0.000000 1.000000
vn 0.000000 0.000000 1.000000
vn 0.000000 0.000000 1.000000
vn 0.000000 0.000000 1.000000
vn 0.000000 0.000000 1.000000
vn 0.000000 0.000000 1.000000
vn 0.000000 0.000000 1.000000
vn 0.000000 0.000000 1.000000
vn -1.000000 0.000000 0.000000
vn -1.000000 0.000000 0.000000
vn -1.000000 0.000000 0.000000
vn -1.000000 0.000000 0.000000
vn -1.000000 0.000000 0.000000
vn -1.000000 0.000000 0.000000
vn -1.000000 0.000000 0.000000
vn -1.000000 0.000000 0.000000
vn -1.000000 0.000000 0.000000
vn -1.000000 0.000000 0.000000
vn -1.000000 0.000000 0.000000
vn -1.000000 0.000000 0.000000
vn -1.000000 0.000000 0.000000
vn -1.000000 0.000000 0.000000
vn -1.000000 0.000000 0.000000
vn -1.000000 0.000000 0.000000
vn -1.000000 0.000000 0.000000
vn -1.000000 0.000000 0.000000
vn -1.000000 0.000000 0.000000
vn -1.000000 0.000000 0.000000
vn 0.000000 0.000000 1.000000
vn 0.000000 0.000000 1.000000
vn 0.000000 0.000000 1.000000
vn 0.000000 0.000000 1.000000
vn 0.000000 0.000000 1.000000
vn 0.000000 0.000000 1.000000
vn 0.000000 0.000000 1.000000
vn 0.000000 0.000000 1.000000
vn 0.000000 0.000000 1.000000
vn 0.000000 0.000000 1.000000
vn 0.000000 0.000000 1.000000
vn 0.000000 0.000000 1.000000
vn 0.000000 0.000000 -1.000000
vn 0.000000 0.000000 -1.000000
vn 0.000000 0.000000 -1.000000
vn 0.000000 0.000000 -1.000000
vn 0.000000 0.000000 -1.000000
vn 0.000000 0.000000 -1.000000
vn 0.000000 0.000000 -1.000000
vn 0.000000 0.000000 -1.000000
vn 1.000000 0.000000 0.000000
vn 1.000000 0.000000 0.000000
vn 1.000000 0.000000 0.000000
vn 1.000000 0.000000 0.000000
vn 1.000000 0.000000 0.000000
vn 1.000000 0.000000 0.000000
vn 1.000000 0.000000 0.000000
vn 1.000000 0.000000 0.000000
vn 0.000000 0.000000 1.000000
vn 0.000000 0.000000 1.000000
vn 0.000000 0.000000 1.000000
vn 0.000000 0.000000 1.000000
vn 0.000000 0.000000 1.000000
vn 0.000000 0.000000 1.000000
vn 0.000000 0.000000 1.000000
vn 0.000000 0.000000 1.000000
vn 0.000000 0.000000 1.000000
vn 0.000000 0.000000 1.000000
vn 0.000000 0.000000 1.000000
vn 0.000000 0.000000 1.000000
vn 0.000000 0.000000 1.000000
vn 0.000000 0.000000 1.000000
vn 0.000000 0.000000 1.000000
vn 0.000000 0.000000 1.000000
vn 0.000000 0.000000 1.000000
vn 0.000000 0.000000 1.000000
vn 0.000000 0.000000 1.000000
vn 0.000000 0.000000 1.000000
vn 0.000000 0.000000 -1.000000
vn 0.000000 0.000000 -1.000000
vn 0.000000 0.000000 -1.000000
vn 0.000000 0.000000 -1.000000
vn 0.000000 0.000000 -1.000000
vn 0.000000 0.000000 -1.000000
vn 0.000000 0.000000 -1.000000
vn 0.000000 0.000000 -1.000000
vn 0.000000 0.000000 -1.000000
vn 0.000000 0.000000 -1.000000
vn 0.000000 0.000000 -1.000000
vn 0.000000 0.000000 -1.000000
vn -1.000000 0.000000 0.000000
vn -1.000000 0.000000 0.000000
vn -1.000000 0.000000 0.000000
vn -1.000000 0.000000 0.000000
vn -1.000000 0.000000 0.000000
vn -1.000000 0.000000 0.000000
vn -1.000000 0.000000 0.000000
vn -1.000000 0.000000 0.000000
vn 0.000000 0.000000 1.000000
vn 0.000000 0.000000 1.000000
vn 0.000000 0.000000 1.000000
vn 0.000000 0.000000 1.000000
vn 0.000000 0.000000 1.000000
vn 0.000000 0.000000 1.000000
vn 0.000000 0.000000 1.000000
vn 0.000000 0.000000 1.000000
vn 0.000000 0.000000 1.000000
vn 0.000000 0.000000 1.000000
vn 0.000000 0.000000 1.000000
vn 0.000000 0.000000 1.000000
vn 0.000000 0.000000 1.000000
vn 0.000000 0.000000 1.000000
vn 0.000000 0.000000 1.000000
vn 0.000000 0.000000 1.000000
vn 0.000000 0.000000 1.000000
vn 0.000000 0.000000 1.000000
vn 0.000000 0.000000 1.000000
vn 0.000000 0.000000 1.000000
vn 0.000000 0.000000 -1.000000
vn 0.000000 0.000000 -1.000000
vn 0.000000 0.000000 -1.000000
vn 0.000000 0.000000 -1.000000
vn 0.000000 0.000000 -1.000000
vn 0.000000 0.000000 -1.000000
vn 1.000000 0.000000 0.000000
vn 1.000000 0.000000 0.000000
vn 1.000000 0.000000 0.000000
vn 1.000000 0.000000 0.000000
vn 1.000000 0.000000 0.000000
vn 1.000000 0.000000 0.000000
vn 1.000000 0.000000 0.000000
vn 1.000000 0.000000 0.000000
vn 1.000000 0.000000 0.000000
vn 1.000000 0.000000 0.000000
vn 1.000000 0.000000 0.000000
vn 1.000000 0.000000 0.000000
vn 1.000000 0.000000 0.000000
vn 1.000000 0.000000 0.000000
vn 1.000000 0.000000 0.000000
vn 1.000000 0.000000 0.000000
vn 1.000000 0.000000 0.000000
vn 1.000000 0.000000 0.000000
vn 1.000000 0.000000 0.000000
vn 1.000000 0.000000 0.000000
vn 0.000000 0.000000 1.000000
vn 0.000000 0.000000 1.000000
vn 0.000000 0.000000 1.000000
vn 0.000000 0.000000 1.000000
vn 0.000000 0.000000 1.000000
vn 0.000000 0.000000 1.000000
vn 0.000000 0.000000 1.000000
vn 0.000000 0.000000 1.000000
vn -1.000000 0.000000 0.000000
vn -1.000000 0.000000 0.000000
vn -1.000000 0.000000 0.000000
vn -1.000000 0.000000 0.000000
vn -1.000000 0.000000 0.000000
vn -1.000000 0.000000 0.000000
vn -1.000000 0.000000 0.000000
vn -1.000000 0.000000 0.000000
vn -1.000000 0.000000 0.000000
vn -1.000000 0.000000 0.000000
vn -1.000000 0.000000 0.000000
vn -1.000000 0.000000 0.000000
vn -1.000000 0.000000 0.000000
vn -1.000000 0.000000 0.000000
vn -1.000000 0.000000 0.000000
vn -1.000000 0.000000 0.000000
vn -1.000000 0.000000 0.000000
vn -1.000000 0.000000 0.000000
vn -1.000000 0.000000 0.000000
vn -1.000000 0.000000 0.000000
vn 0.000000 0.000000 1.000000
vn 0.000000 0.000000 1.000000
vn 0.000000 0.000000 1.000000
vn 0.000000 0.000000 1.000000
vn 0.000000 0.000000 1.000000
vn 0.000000 0.000000 1.000000
vn 0.000000 0.000000 1.000000
vn 0.000000 0.000000 1.000000
vn 1.000000 0.000000 0.000000
vn 1.000000 0.000000 0.000000
vn 1.000000 0.000000 0.000000
vn 1.000000 0.000000 0.000000
vn 1.000000 0.000000 0.000000
vn 1.000000 0.000000 0.000000
vn 1.000000 0.000000 0.000000
vn 1.000000 0.000000 0.000000
vn 0.000000 0.000000 -1.000000
vn 0.000000 0.000000 -1.000000
vn 0.000000 0.000000 -1.000000
vn 0.000000 0.000000 -1.000000
vn 0.000000 0.000000 -1.000000
vn 0.000000 0.000000 -1.000000
vn 0.000000 0.000000 -1.000000
vn 0.000000 0.000000 -1.000000
vn -1.000000 0.000000 0.000000
vn -1.000000 0.000000 0.000000
vn -1.000000 0.000000 0.000000
vn -1.000000 0.000000 0.000000
vn -1.000000 0.000000 0.000000
vn -1.000000 0.000000 0.000000
vn -1.000000 0.000000 0.000000
vn -1.000000 0.000000 0.000000
s 1
f 4/1/1 2/2/2 5/3/3 6/4/4
f 6/4/4 5/3/3 1/5/5 3/6/6
s off
f 6/4/7 3/6/8 7/7/9 8/8/10
f 4/1/11 6/4/12 8/8/13 9/9/14
f 9/9/15 8/8/16 11/10/17 12/11/18
f 11/10/19 10/12/20 13/13/21 14/14/22
f 12/11/23 11/10/24 14/14/25 15/15/26
f 14/16/27 13/17/28 16/18/29 17/19/30
f 15/20/31 14/16/32 17/19/33 18/21/34
f 17/19/35 16/18/36 19/22/37 20/23/38
f 18/21/39 17/19/40 20/23/41 21/24/42
f 21/24/43 20/23/44 23/25/45 24/26/46
f 1/5/47 5/3/48 23/25/49 22/27/50
f 5/3/51 2/2/52 24/26/53 23/25/54
f 27/28/55 25/29/56 28/30/57 29/31/58
f 26/32/59 27/28/60 29/31/61 30/33/62
f 30/33/63 29/31/64 32/34/65 33/35/66
f 32/34/67 31/36/68 34/37/69 35/38/70
f 33/35/71 32/34/72 35/38/73 36/39/74
f 35/38/75 34/37/76 37/40/77 38/41/78
f 36/39/79 35/38/80 38/41/81 39/42/82
f 25/29/83 27/28/84 41/43/85 40/44/86
f 27/28/87 26/32/88 42/45/89 41/43/90
f 40/44/91 41/43/92 44/46/93 43/47/94
f 41/43/95 42/45/96 45/48/97 44/46/98
f 44/46/99 45/48/100 48/49/101 47/50/102
f 46/51/103 47/50/104 50/52/105 49/53/106
f 47/50/107 48/49/108 51/54/109 50/52/110
f 49/53/111 50/52/112 53/55/113 52/56/114
f 50/52/115 51/54/116 54/57/117 53/55/118
f 52/56/119 53/55/120 56/58/121 55/59/122
f 53/55/123 54/57/124 57/60/125 56/58/126
f 56/58/127 57/60/128 60/61/129 59/62/130
f 58/63/131 59/62/132 62/64/133 61/65/134
f 59/62/135 60/61/136 63/66/137 62/64/138
f 61/65/139 62/64/140 65/67/141 64/68/142
f 62/64/143 63/66/144 66/69/145 65/67/146
f 64/68/147 65/67/148 68/70/149 67/71/150
f 65/67/151 66/69/152 69/72/153 68/70/154
f 68/70/155 69/72/156 72/73/157 71/74/158
f 70/75/159 71/74/160 74/76/161 73/77/162
f 71/74/163 72/73/164 75/78/165 74/76/166
f 73/79/167 74/80/168 77/81/169 76/82/170
f 74/80/171 75/83/172 78/84/173 77/81/174
f 39/42/175 38/41/176 77/81/177 78/84/178
f 80/85/179 79/86/180 82/87/181 83/88/182
f 81/89/183 80/85/184 83/88/185 84/90/186
f 83/88/187 82/87/188 85/91/189 86/92/190
f 84/90/191 83/88/192 86/92/193 87/93/194
f 86/92/195 85/91/196 88/94/197 89/95/198
f 87/93/199 86/92/200 89/95/201 90/96/202
f 90/96/203 89/95/204 92/97/205 93/98/206
f 92/97/207 91/99/208 94/100/209 95/101/210
f 93/98/211 92/97/212 95/101/213 96/102/214
f 80/85/215 81/89/216 99/103/217 98/104/218
f 97/105/219 98/104/220 101/106/221 100/107/222
f 98/104/223 99/103/224 102/108/225 101/106/226
f 100/107/227 101/106/228 104/109/229 103/110/230
f 101/106/231 102/108/232 105/111/233 104/109/234
f 103/110/235 104/109/236 107/112/237 106/113/238
f 104/109/239 105/111/240 108/114/241 107/112/242
f 107/112/243 108/114/244 111/115/245 110/116/246
f 109/117/247 110/116/248 113/118/249 112/119/250
f 110/116/251 111/115/252 114/120/253 113/118/254
s 2
f 118/121/255 116/122/256 119/123/257 120/124/258
f 120/124/258 119/123/257 115/125/259 117/126/260
s off
f 120/124/261 117/126/262 121/127/263 122/128/264
f 118/121/265 120/124/266 122/128/267 123/129/268
f 123/129/269 122/128/270 125/130/271 126/131/272
f 125/130/273 124/132/274 127/133/275 128/134/276
f 126/131/277 125/130/278 128/134/279 129/135/280
f 128/134/281 127/133/282 130/136/283 131/137/284
f 129/135/285 128/134/286 131/137/287 132/138/288
f 131/139/289 130/140/290 133/141/291 134/142/292
f 132/143/293 131/139/294 134/142/295 135/144/296
f 135/144/297 134/142/298 137/145/299 138/146/300
f 115/125/301 119/123/302 137/145/303 136/147/304
f 119/123/305 116/122/306 138/146/307 137/145/308
f 139/148/309 140/149/310 143/150/311 142/151/312
f 140/149/313 141/152/314 144/153/315 143/150/316
f 140/154/317 139/155/318 145/156/319 146/157/320
f 141/158/321 140/154/322 146/157/323 147/159/324
f 146/157/325 145/156/326 148/160/327 149/161/328
f 147/159/329 146/157/330 149/161/331 150/162/332
f 142/151/333 143/150/334 149/161/335 148/160/336
f 143/150/337 144/153/338 150/162/339 149/161/340
